<svg width="940" height="289" viewBox="0 0 940 289" fill="none" xmlns="http://www.w3.org/2000/svg">
<path d="M2.30603 47.4348H168.917V78.5662H103.483V253.248H67.4514V78.5662H2.30603V47.4348ZM184.129 47.4348H282.423C305.099 47.4348 322.106 52.3351 333.444 62.1357C344.782 71.9364 350.451 85.5804 350.451 103.068C350.451 112.868 349.01 121.036 346.128 127.569C343.245 133.911 339.882 139.1 336.039 143.135C332.195 146.978 328.352 149.765 324.509 151.494C320.857 153.224 318.167 154.377 316.437 154.953V155.53C319.512 155.914 322.779 156.875 326.238 158.413C329.889 159.95 333.252 162.448 336.327 165.907C339.402 169.174 341.9 173.498 343.822 178.879C345.935 184.259 346.992 190.985 346.992 199.056C346.992 211.163 347.857 222.213 349.587 232.206C351.508 242.006 354.391 249.02 358.234 253.248H319.608C316.918 248.828 315.284 243.928 314.708 238.547C314.324 233.166 314.131 227.978 314.131 222.981C314.131 213.565 313.555 205.494 312.402 198.768C311.249 191.85 309.135 186.181 306.06 181.761C302.986 177.149 298.758 173.786 293.377 171.672C288.189 169.558 281.463 168.501 273.199 168.501H220.161V253.248H184.129V47.4348ZM220.161 141.117H279.253C290.783 141.117 299.527 138.427 305.484 133.046C311.441 127.473 314.42 119.21 314.42 108.256C314.42 101.723 313.459 96.438 311.537 92.4024C309.615 88.1747 306.925 84.9078 303.466 82.6018C300.199 80.2957 296.356 78.7584 291.936 77.9897C287.708 77.221 283.288 76.8367 278.676 76.8367H220.161V141.117ZM378.441 47.4348H526.604V78.5662H414.473V132.47H518.244V161.872H414.473V222.117H528.622V253.248H378.441V47.4348ZM528.011 47.4348H565.484L617.082 210.298H617.658L670.409 47.4348H707.017L636.683 253.248H596.616L528.011 47.4348ZM758.222 47.4348H796.56L875.83 253.248H837.204L817.891 198.768H735.739L716.426 253.248H679.241L758.222 47.4348ZM745.539 171.384H808.379L777.535 82.89H776.671L745.539 171.384Z" fill="white"/>
<path d="M926.299 62.7137C926.299 57.2171 925.41 52.165 923.631 47.5575C921.853 42.95 919.388 38.9892 916.235 35.675C913.083 32.3608 909.405 29.8146 905.201 28.0362C900.998 26.1771 896.471 25.2475 891.621 25.2475C886.69 25.2475 882.083 26.1771 877.799 28.0362C873.595 29.8146 869.918 32.3608 866.765 35.675C863.613 38.9892 861.147 42.95 859.369 47.5575C857.59 52.165 856.701 57.2171 856.701 62.7137C856.701 67.8871 857.51 72.7371 859.126 77.2637C860.743 81.7904 863.047 85.7512 866.038 89.1462C869.109 92.5412 872.787 95.2492 877.071 97.27C881.355 99.21 886.205 100.18 891.621 100.18C896.471 100.18 900.998 99.2908 905.201 97.5125C909.405 95.6533 913.083 93.0667 916.235 89.7525C919.388 86.4383 921.853 82.5179 923.631 77.9912C925.41 73.3837 926.299 68.2912 926.299 62.7137ZM935.999 62.7137C935.999 69.5037 934.786 75.6875 932.361 81.265C930.017 86.8425 926.784 91.6117 922.661 95.5725C918.62 99.5333 913.891 102.605 908.475 104.787C903.14 106.97 897.522 108.061 891.621 108.061C885.074 108.061 879.052 106.93 873.555 104.666C868.139 102.322 863.451 99.1292 859.49 95.0875C855.61 91.0458 852.538 86.2767 850.275 80.78C848.093 75.2025 847.001 69.1804 847.001 62.7137C847.001 55.9237 848.173 49.74 850.518 44.1625C852.943 38.585 856.176 33.8158 860.218 29.855C864.34 25.8942 869.109 22.8225 874.525 20.64C879.941 18.4575 885.64 17.3662 891.621 17.3662C897.522 17.3662 903.14 18.4575 908.475 20.64C913.891 22.8225 918.62 25.8942 922.661 29.855C926.784 33.8158 930.017 38.585 932.361 44.1625C934.786 49.74 935.999 55.9237 935.999 62.7137ZM891.864 60.1675C893.4 60.1675 894.855 60.1271 896.229 60.0462C897.684 59.8846 898.937 59.5208 899.988 58.955C901.038 58.3892 901.887 57.6212 902.534 56.6512C903.18 55.6004 903.504 54.1454 903.504 52.2862C903.504 50.7504 903.14 49.5379 902.413 48.6487C901.766 47.7596 900.917 47.0725 899.866 46.5875C898.815 46.1025 897.643 45.8196 896.35 45.7387C895.057 45.5771 893.804 45.4962 892.591 45.4962H882.649V60.1675H891.864ZM882.649 88.6612H874.404V38.4637H893.44C899.503 38.4637 904.07 39.5954 907.141 41.8587C910.213 44.1221 911.749 47.8 911.749 52.8925C911.749 57.4192 910.496 60.7333 907.99 62.835C905.484 64.9367 902.372 66.1896 898.654 66.5937L912.719 88.6612H903.383L890.409 67.2H882.649V88.6612Z" fill="white"/>
</svg>
