<svg width="13" height="13" viewBox="0 0 13 13" fill="none" xmlns="http://www.w3.org/2000/svg">
<path d="M11.6626 3.9439L5.16265 10.4439C5.12492 10.4817 5.08011 10.5116 5.0308 10.5321C4.98148 10.5525 4.92861 10.563 4.87523 10.563C4.82184 10.563 4.76897 10.5525 4.71966 10.5321C4.67034 10.5116 4.62553 10.4817 4.5878 10.4439L1.74405 7.60015C1.66782 7.52392 1.625 7.42053 1.625 7.31273C1.625 7.20492 1.66782 7.10153 1.74405 7.0253C1.82028 6.94907 1.92367 6.90625 2.03148 6.90625C2.13928 6.90625 2.24267 6.94907 2.3189 7.0253L4.87523 9.58214L11.0878 3.36905C11.164 3.29282 11.2674 3.25 11.3752 3.25C11.483 3.25 11.5864 3.29282 11.6626 3.36905C11.7389 3.44528 11.7817 3.54867 11.7817 3.65648C11.7817 3.76428 11.7389 3.86767 11.6626 3.9439Z" fill="white"/>
</svg>
