<svg width="15" height="15" viewBox="0 0 15 15" fill="none" xmlns="http://www.w3.org/2000/svg"><path d="M8.27124 12.6575L13.125 7.6875" stroke="#666666" stroke-width="1.25" stroke-linecap="round" stroke-linejoin="round"/><path d="M10.0001 3.74995L4.74132 9.1162C4.50698 9.35061 4.37534 9.6685 4.37534 9.99995C4.37534 10.3314 4.50698 10.6493 4.74132 10.8837C4.97573 11.118 5.29362 11.2497 5.62507 11.2497C5.95653 11.2497 6.27441 11.118 6.50882 10.8837L11.7676 5.51745C12.2363 5.04864 12.4995 4.41286 12.4995 3.74995C12.4995 3.08704 12.2363 2.45127 11.7676 1.98245C11.2988 1.51378 10.663 1.25049 10.0001 1.25049C9.33716 1.25049 8.70139 1.51378 8.23257 1.98245L2.9732 7.34808C2.26988 8.0514 1.87476 9.00531 1.87476 9.99995C1.87476 10.9946 2.26988 11.9485 2.9732 12.6518C3.67652 13.3552 4.63043 13.7503 5.62507 13.7503C6.61972 13.7503 7.57363 13.3552 8.27695 12.6518" stroke="#666666" stroke-width="1.25" stroke-linecap="round" stroke-linejoin="round"/></svg>
