<svg width="720" height="154" viewBox="0 0 720 154" fill="none" xmlns="http://www.w3.org/2000/svg">
<path d="M36.7347 49.5604L0 63.645V153.891H720V0L710.13 5.23438L698.701 12.0391L687.273 18.3203L673.766 25.6484L659.221 33.5L647.273 40.3047L634.805 47.1094L621.818 54.4375L610.909 59.6719L601.039 63.3359L590.649 64.3828H579.221L563.636 62.2891L553.766 60.7188L540.26 58.625L528.98 56.8635C526.224 56.6896 521.039 55.4844 518.961 54.9609C517.535 54.6018 511.169 53.3906 508.052 53.3906L498.182 52.3438L489.351 53.9141L478.961 57.0547C475.9 57.9241 469.091 62.2891 468.052 62.8125C467.395 63.1436 461.03 67.3549 457.662 69.0938L447.792 75.375L437.403 82.1797L425.454 90.0312L413.506 97.3594C410.445 99.0982 404.282 103.436 402.078 104.688C399.323 106.252 392.95 110.296 388.052 113.586C383.377 116.727 370.909 123.008 362.597 124.578C356.883 125.625 347.013 125.102 340.779 124.055C334.418 122.986 322.597 120.391 320.519 119.867C319.094 119.508 307.848 116.723 302.338 115.68L284.675 110.969L271.169 107.305L253.506 102.07L236.883 96.3125L224.935 91.6016L215.584 87.4141L202.597 80.6094L189.091 73.2812L174.545 64.3828L162.152 56.3401C161.039 55.4844 158.872 54.1191 157.403 52.8672C155.566 51.3022 146.116 45.1591 144.416 43.4453C142.857 41.875 127.792 32.9766 122.597 31.4062C118.808 30.2608 109.61 27.7422 103.896 27.7422C101.653 27.7422 90.5065 29.6222 86.7532 30.8828C83.6364 31.9297 80.5195 32.4531 69.0909 37.1641C58.8622 41.3804 42.551 47.4738 36.7347 49.5604Z" fill="url(#paint0_linear)"/>
<defs>
<linearGradient id="paint0_linear" x1="0" y1="0" x2="62.9103" y2="294.335" gradientUnits="userSpaceOnUse">
<stop stop-color="#1A1A1A" stop-opacity="0.4"/>
<stop offset="0.5" stop-color="#4E525D" stop-opacity="0.2"/>
<stop offset="1" stop-color="#666666" stop-opacity="0.2"/>
</linearGradient>
</defs>
</svg>
