<svg width="16" height="16" viewBox="0 0 16 16" fill="none" xmlns="http://www.w3.org/2000/svg">
<path d="M13.8293 10.4804L13.1897 10.0887H13.1897L13.8293 10.4804ZM13.1929 11.5196L13.8325 11.9113V11.9113L13.1929 11.5196ZM2.17073 5.51961L1.53112 5.12795L1.53112 5.12795L2.17073 5.51961ZM2.80709 4.48038L3.4467 4.87204H3.4467L2.80709 4.48038ZM4.54568 4.04115L4.90426 3.38242L4.90426 3.38242L4.54568 4.04115ZM2.63658 7.15884L2.278 7.81757H2.278L2.63658 7.15884ZM11.4543 11.9588L11.0957 12.6176H11.0957L11.4543 11.9588ZM13.3634 8.84115L13.0048 9.49988V9.49988L13.3634 8.84115ZM2.80709 11.5196L2.16748 11.9113L2.16748 11.9113L2.80709 11.5196ZM2.17073 10.4804L2.81034 10.0887H2.81034L2.17073 10.4804ZM13.1929 4.48039L13.8325 4.08873V4.08873L13.1929 4.48039ZM13.8293 5.51962L13.1897 5.91128L13.1897 5.91128L13.8293 5.51962ZM13.3634 7.15885L13.722 7.81758V7.81758L13.3634 7.15885ZM11.4543 4.04116L11.8129 4.69988V4.69988L11.4543 4.04116ZM2.63658 8.84116L2.99516 9.49988H2.99516L2.63658 8.84116ZM4.54568 11.9588L4.1871 11.3001L4.18709 11.3001L4.54568 11.9588ZM11.3867 4.07798L11.0281 3.41926V3.41926L11.3867 4.07798ZM4.61333 4.07798L4.25475 4.7367L4.25475 4.7367L4.61333 4.07798ZM11.3867 11.922L11.7453 11.2633L11.7453 11.2633L11.3867 11.922ZM4.61333 11.922L4.97191 12.5807L4.97192 12.5807L4.61333 11.922ZM7.36363 2V2.75H8.63637V2V1.25H7.36363V2ZM8.63637 14V13.25H7.36363V14V14.75H8.63637V14ZM7.36363 14V13.25C7.03275 13.25 6.8409 13.0076 6.8409 12.8H6.0909H5.3409C5.3409 13.9179 6.2887 14.75 7.36363 14.75V14ZM9.9091 12.8H9.1591C9.1591 13.0076 8.96725 13.25 8.63637 13.25V14V14.75C9.7113 14.75 10.6591 13.9179 10.6591 12.8H9.9091ZM8.63637 2V2.75C8.96725 2.75 9.1591 2.99244 9.1591 3.2H9.9091H10.6591C10.6591 2.08208 9.7113 1.25 8.63637 1.25V2ZM7.36363 2V1.25C6.2887 1.25 5.3409 2.08208 5.3409 3.2H6.0909H6.8409C6.8409 2.99244 7.03275 2.75 7.36363 2.75V2ZM13.8293 10.4804L13.1897 10.0887L12.5533 11.1279L13.1929 11.5196L13.8325 11.9113L14.4689 10.872L13.8293 10.4804ZM2.17073 5.51961L2.81034 5.91127L3.4467 4.87204L2.80709 4.48038L2.16748 4.08872L1.53112 5.12795L2.17073 5.51961ZM2.80709 4.48038L3.4467 4.87204C3.57961 4.65499 3.91208 4.55017 4.1871 4.69988L4.54568 4.04115L4.90426 3.38242C3.9618 2.86939 2.73748 3.15787 2.16748 4.08872L2.80709 4.48038ZM2.63658 7.15884L2.99516 6.50012C2.74354 6.36315 2.69466 6.10018 2.81034 5.91127L2.17073 5.51961L1.53112 5.12795C0.943882 6.08695 1.31214 7.2918 2.278 7.81757L2.63658 7.15884ZM13.1929 11.5196L12.5533 11.1279C12.4204 11.345 12.0879 11.4498 11.8129 11.3001L11.4543 11.9588L11.0957 12.6176C12.0382 13.1306 13.2625 12.8421 13.8325 11.9113L13.1929 11.5196ZM13.8293 10.4804L14.4689 10.872C15.0561 9.91305 14.6879 8.70819 13.722 8.18242L13.3634 8.84115L13.0048 9.49988C13.2565 9.63685 13.3053 9.89981 13.1897 10.0887L13.8293 10.4804ZM2.80709 11.5196L3.4467 11.128L2.81034 10.0887L2.17073 10.4804L1.53112 10.8721L2.16748 11.9113L2.80709 11.5196ZM13.1929 4.48039L12.5533 4.87205L13.1897 5.91128L13.8293 5.51962L14.4689 5.12796L13.8325 4.08873L13.1929 4.48039ZM13.8293 5.51962L13.1897 5.91128C13.3053 6.10019 13.2565 6.36315 13.0048 6.50012L13.3634 7.15885L13.722 7.81758C14.6879 7.2918 15.0561 6.08695 14.4689 5.12796L13.8293 5.51962ZM11.4543 4.04116L11.8129 4.69988C12.0879 4.55018 12.4204 4.655 12.5533 4.87205L13.1929 4.48039L13.8325 4.08873C13.2625 3.15788 12.0382 2.8694 11.0957 3.38243L11.4543 4.04116ZM2.17073 10.4804L2.81034 10.0887C2.69466 9.89982 2.74354 9.63686 2.99516 9.49988L2.63658 8.84116L2.278 8.18243C1.31214 8.7082 0.943881 9.91305 1.53112 10.8721L2.17073 10.4804ZM2.80709 11.5196L2.16748 11.9113C2.73748 12.8421 3.9618 13.1306 4.90426 12.6176L4.54568 11.9588L4.18709 11.3001C3.91208 11.4498 3.57961 11.345 3.4467 11.128L2.80709 11.5196ZM11.3867 4.07798L11.7453 4.73671L11.8129 4.69988L11.4543 4.04116L11.0957 3.38243L11.0281 3.41926L11.3867 4.07798ZM4.54568 4.04115L4.18709 4.69987L4.25475 4.7367L4.61333 4.07798L4.97192 3.41925L4.90426 3.38242L4.54568 4.04115ZM11.4543 11.9588L11.8129 11.3001L11.7453 11.2633L11.3867 11.922L11.0281 12.5807L11.0957 12.6176L11.4543 11.9588ZM4.61333 11.922L4.25476 11.2633L4.1871 11.3001L4.54568 11.9588L4.90425 12.6176L4.97191 12.5807L4.61333 11.922ZM2.63658 7.15884L2.278 7.81757C2.42253 7.89625 2.42253 8.10375 2.278 8.18243L2.63658 8.84116L2.99516 9.49988C4.18348 8.85302 4.18348 7.14699 2.99516 6.50012L2.63658 7.15884ZM4.61333 11.922L4.97192 12.5807C5.13826 12.4902 5.3409 12.6106 5.3409 12.8H6.0909H6.8409C6.8409 11.4726 5.42063 10.6286 4.25475 11.2633L4.61333 11.922ZM9.9091 12.8H10.6591C10.6591 12.6106 10.8617 12.4902 11.0281 12.5807L11.3867 11.922L11.7453 11.2633C10.5794 10.6286 9.1591 11.4726 9.1591 12.8H9.9091ZM13.3634 8.84115L13.722 8.18242C13.5775 8.10375 13.5775 7.89625 13.722 7.81758L13.3634 7.15885L13.0048 6.50012C11.8165 7.14699 11.8165 8.85301 13.0048 9.49988L13.3634 8.84115ZM4.61333 4.07798L4.25475 4.7367C5.42063 5.37136 6.8409 4.52742 6.8409 3.2H6.0909H5.3409C5.3409 3.38939 5.13826 3.5098 4.97192 3.41925L4.61333 4.07798ZM11.3867 4.07798L11.0281 3.41926C10.8617 3.50981 10.6591 3.3894 10.6591 3.2H9.9091H9.1591C9.1591 4.52742 10.5794 5.37137 11.7453 4.73671L11.3867 4.07798ZM10 8H9.25001C9.25001 8.69036 8.69036 9.25 8.00001 9.25V10V10.75C9.51879 10.75 10.75 9.51878 10.75 8H10ZM8.00001 10V9.25C7.30965 9.25 6.75001 8.69036 6.75001 8H6.00001H5.25001C5.25001 9.51878 6.48122 10.75 8.00001 10.75V10ZM6.00001 8H6.75001C6.75001 7.30964 7.30965 6.75 8.00001 6.75V6V5.25C6.48122 5.25 5.25001 6.48122 5.25001 8H6.00001ZM8.00001 6V6.75C8.69036 6.75 9.25001 7.30964 9.25001 8H10H10.75C10.75 6.48122 9.51879 5.25 8.00001 5.25V6Z" fill="#4E525D"/>
</svg>
