<svg preserveAspectRatio="none" overflow="visible" style="display: block;" width="16" height="16" viewBox="0 0 16 16" fill="none" xmlns="http://www.w3.org/2000/svg">
<g id="Huge-icon/time and date/outline/time-quarter past" clip-path="url(#clip0_0_547)">
<path id="Ellipse 440" d="M14.6667 8C14.6667 4.3181 11.6819 1.33333 8 1.33333" stroke="#666666" stroke-width="1.5" stroke-linecap="round"/>
<path id="Ellipse 439" d="M14.6667 8C14.6667 11.6819 11.6819 14.6667 8 14.6667C4.3181 14.6667 1.33333 11.6819 1.33333 8C1.33333 4.3181 4.3181 1.33333 8 1.33333" stroke="#666666" stroke-width="1.5" stroke-linecap="round" stroke-linejoin="round" stroke-dasharray="0.5 3"/>
<path id="Ellipse 442" d="M9 8C9 8.55228 8.55228 9 8 9C7.44772 9 7 8.55228 7 8C7 7.44772 7.44772 7 8 7C8.55228 7 9 7.44772 9 8Z" stroke="#666666" stroke-width="1.5"/>
<path id="Vector 1133" d="M9 8H10.6667M8 4V7" stroke="#666666" stroke-width="1.5" stroke-linecap="round" stroke-linejoin="round"/>
</g>
<defs>
<clipPath id="clip0_0_547">
<rect width="16" height="16" fill="white"/>
</clipPath>
</defs>
</svg>
