<svg width="11" height="12" viewBox="0 0 11 12" fill="none" xmlns="http://www.w3.org/2000/svg">
<path d="M0.000140645 7.71397C0.000140645 6.97664 0.0748073 6.31864 0.224141 5.73997C0.382807 5.15197 0.630141 4.64797 0.966141 4.22797C1.31147 3.79864 1.75947 3.4673 2.31014 3.23397C2.87014 2.9913 3.55147 2.8513 4.35414 2.81397V-2.89679e-05H6.00614V2.81397C6.79947 2.8513 7.47147 2.98197 8.02214 3.20597C8.58214 3.42064 9.03014 3.7333 9.36614 4.14397C9.71147 4.5453 9.96347 5.03997 10.1221 5.62797C10.2808 6.21597 10.3601 6.90197 10.3601 7.68597V9.99597H8.65214V7.71397C8.65214 7.0513 8.59614 6.5053 8.48414 6.07597C8.37214 5.64664 8.20414 5.30597 7.98014 5.05397C7.76547 4.80197 7.49014 4.61997 7.15414 4.50797C6.82747 4.38664 6.44481 4.3073 6.00614 4.26997V7.64397H4.35414V4.26997C3.91547 4.3073 3.53281 4.38664 3.20614 4.50797C2.87947 4.61997 2.60414 4.80197 2.38014 5.05397C2.15614 5.30597 1.98814 5.64664 1.87614 6.07597C1.76414 6.49597 1.70814 7.03264 1.70814 7.68597V9.99597H0.000140645V7.71397Z" fill="black"/>
</svg>
