<svg width="16" height="16" viewBox="0 0 16 16" fill="none" xmlns="http://www.w3.org/2000/svg">
<path d="M14.087 6.56877C14.8601 7.38215 14.8601 8.61793 14.087 9.43131C12.7832 10.8032 10.5438 12.6667 8.00016 12.6667C5.45649 12.6667 3.21716 10.8032 1.9133 9.43131C1.14023 8.61793 1.14023 7.38215 1.9133 6.56877C3.21716 5.19693 5.45649 3.33337 8.00016 3.33337C10.5438 3.33337 12.7832 5.19693 14.087 6.56877Z" stroke="#666666" stroke-width="1.5"/>
<path d="M10.0002 8.00004C10.0002 9.10461 9.10473 10 8.00016 10C6.89559 10 6.00016 9.10461 6.00016 8.00004C6.00016 6.89547 6.89559 6.00004 8.00016 6.00004C9.10473 6.00004 10.0002 6.89547 10.0002 8.00004Z" stroke="#666666" stroke-width="1.5"/>
</svg>
