<svg width="20" height="20" viewBox="0 0 20 20" fill="none" xmlns="http://www.w3.org/2000/svg">
<path d="M18.3818 14.9941C19.3171 15.9296 19.3172 17.4464 18.3818 18.3818C17.4464 19.3172 15.9296 19.3171 14.9941 18.3818L12.7979 16.1855L13.5371 15.6748C14.3715 15.0968 15.0968 14.3715 15.6748 13.5371L16.1855 12.7979L18.3818 14.9941ZM8.75 1.04199C13.0072 1.04199 16.458 4.49281 16.458 8.75C16.458 13.0072 13.0072 16.458 8.75 16.458C4.49281 16.458 1.04199 13.0072 1.04199 8.75C1.04199 4.4928 4.4928 1.04199 8.75 1.04199ZM8.75 2.29199C5.18316 2.29199 2.29199 5.18316 2.29199 8.75C2.29199 12.3168 5.18316 15.208 8.75 15.208C12.3168 15.208 15.208 12.3168 15.208 8.75C15.208 5.18316 12.3168 2.29199 8.75 2.29199Z" fill="#4E525D"/>
</svg>
