<svg width="30" height="30" viewBox="0 0 30 30" fill="none" xmlns="http://www.w3.org/2000/svg">
<path d="M5.16699 6.66699C5.62708 6.66717 6 7.03987 6 7.5C6 7.96013 5.62708 8.33283 5.16699 8.33301C4.70675 8.33301 4.33301 7.96024 4.33301 7.5C4.33301 7.03976 4.70675 6.66699 5.16699 6.66699ZM8.5 6.66699C8.96024 6.66699 9.33301 7.03976 9.33301 7.5C9.33301 7.96024 8.96024 8.33301 8.5 8.33301C8.03976 8.33301 7.66699 7.96024 7.66699 7.5C7.66699 7.03976 8.03976 6.66699 8.5 6.66699ZM11.833 6.66699C12.2932 6.66699 12.667 7.03976 12.667 7.5C12.667 7.96024 12.2932 8.33301 11.833 8.33301C11.3729 8.33283 11 7.96013 11 7.5C11 7.03987 11.3729 6.66717 11.833 6.66699Z" fill="#4E525D"/>
</svg>
