<svg width="14" height="14" viewBox="0 0 14 14" fill="none" xmlns="http://www.w3.org/2000/svg">
<g clip-path="url(#clip0_316_22019)">
<path d="M6.5625 12.0312C9.58281 12.0312 12.0312 9.58281 12.0312 6.5625C12.0312 3.54219 9.58281 1.09375 6.5625 1.09375C3.54219 1.09375 1.09375 3.54219 1.09375 6.5625C1.09375 9.58281 3.54219 12.0312 6.5625 12.0312Z" stroke="#C8C9CD" stroke-width="1.09375" stroke-linecap="round" stroke-linejoin="round"/>
<path d="M4.9711 4.92187C5.09967 4.55638 5.35345 4.24818 5.68748 4.05187C6.02151 3.85555 6.41425 3.78379 6.79612 3.84929C7.17799 3.9148 7.52436 4.11333 7.77388 4.40974C8.02339 4.70615 8.15996 5.0813 8.15938 5.46875C8.15938 6.5625 6.51876 7.10937 6.51876 7.10937" stroke="#C8C9CD" stroke-width="1.09375" stroke-linecap="round" stroke-linejoin="round"/>
<path d="M6.5625 9.29688H6.56797" stroke="#C8C9CD" stroke-width="1.09375" stroke-linecap="round" stroke-linejoin="round"/>
</g>
<defs>
<clipPath id="clip0_316_22019">
<rect width="13.125" height="13.125" fill="white"/>
</clipPath>
</defs>
</svg>
