<svg width="16" height="16" viewBox="0 0 16 16" fill="none" xmlns="http://www.w3.org/2000/svg">
<path d="M6.66683 4H10.6668M6.66683 9.33333H10.6668M6.66683 6.66667H14.6668M6.66683 12H14.6668M2.66683 6.66667C1.93045 6.66667 1.3335 6.06971 1.3335 5.33333C1.3335 4.59695 1.93045 4 2.66683 4C3.40321 4 4.00016 4.59695 4.00016 5.33333C4.00016 6.06971 3.40321 6.66667 2.66683 6.66667ZM2.66683 12C1.93045 12 1.3335 11.403 1.3335 10.6667C1.3335 9.93029 1.93045 9.33333 2.66683 9.33333C3.40321 9.33333 4.00016 9.93029 4.00016 10.6667C4.00016 11.403 3.40321 12 2.66683 12Z" stroke="#4E525D" stroke-width="1.5" stroke-linecap="round"/>
</svg>
